<?xml version="1.0" encoding="UTF-8" standalone="no"?>
<svg
   xmlns:dc="http://purl.org/dc/elements/1.1/"
   xmlns:cc="http://creativecommons.org/ns#"
   xmlns:rdf="http://www.w3.org/1999/02/22-rdf-syntax-ns#"
   xmlns:svg="http://www.w3.org/2000/svg"
   xmlns="http://www.w3.org/2000/svg"
   xmlns:sodipodi="http://sodipodi.sourceforge.net/DTD/sodipodi-0.dtd"
   xmlns:inkscape="http://www.inkscape.org/namespaces/inkscape"
   viewBox="0 0 700 700"
   version="1.1"
   id="svg12"
   sodipodi:docname="carrefour-logo.svg"
   width="700"
   height="700"
   inkscape:version="0.92.4 (5da689c313, 2019-01-14)"
   inkscape:export-filename="G:\Users\suitedoalex\sites\carrefour-logo-0.png"
   inkscape:export-xdpi="561.73712"
   inkscape:export-ydpi="561.73712">
  <metadata
     id="metadata16">
    <rdf:RDF>
      <cc:Work
         rdf:about="">
        <dc:format>image/svg+xml</dc:format>
        <dc:type
           rdf:resource="http://purl.org/dc/dcmitype/StillImage" />
        <dc:title></dc:title>
      </cc:Work>
    </rdf:RDF>
  </metadata>
  <sodipodi:namedview
     pagecolor="#ffffff"
     bordercolor="#666666"
     borderopacity="1"
     objecttolerance="10"
     gridtolerance="10"
     guidetolerance="10"
     inkscape:pageopacity="0"
     inkscape:pageshadow="2"
     inkscape:window-width="1600"
     inkscape:window-height="837"
     id="namedview14"
     showgrid="false"
     inkscape:zoom="0.38339881"
     inkscape:cx="668.32782"
     inkscape:cy="-112.28636"
     inkscape:window-x="-8"
     inkscape:window-y="-8"
     inkscape:window-maximized="1"
     inkscape:current-layer="Group_1268-2" />
  <defs
     id="defs4">
    <style
       id="style2">
      .cls-1 {
        fill: #fff;
        opacity: 0;
      }

      .cls-2 {
        fill: #ef3742;
      }

      .cls-3 {
        fill: #1852cc;
      }
    </style>
  </defs>
  <g
     id="Group_1268"
     data-name="Group 1268"
     transform="matrix(4.5629149,0,0,4.5629149,-2100.2419,-67954.851)"
     inkscape:export-filename="G:\Users\suitedoalex\sites\carrefour-logo-4.png"
     inkscape:export-xdpi="54.647228"
     inkscape:export-ydpi="54.647228">
    <rect
       id="Rectangle_656"
       data-name="Rectangle 656"
       class="cls-1"
       width="154"
       height="30"
       transform="translate(462,15062)"
       x="0"
       y="0"
       style="opacity:0;fill:#ffffff" />
    <g
       id="Group_1270"
       data-name="Group 1270">
      <path
         id="Path_508"
         data-name="Path 508"
         class="cls-2"
         d="m 182.719,623.554 -11.591,11.185 a 2.312,2.312 0 0 0 0,3.7 l 11.591,11.185 c 0.077,0.077 0.077,0.077 0.232,0.077 0.077,0 0.155,-0.077 0.155,-0.231 0,-0.077 -0.077,-0.154 -0.077,-0.231 a 19.435,19.435 0 0 1 0,-25.378 0.283,0.283 0 0 0 0.077,-0.231 c 0,-0.154 -0.077,-0.231 -0.155,-0.231 -0.077,0.077 -0.155,0.077 -0.232,0.154"
         inkscape:connector-curvature="0"
         style="fill:#ef3742"
         transform="translate(402.453,14440.372)" />
      <path
         id="Path_509"
         data-name="Path 509"
         class="cls-3"
         d="m 196.037,622.4 c -4.559,0 -6.337,6.4 -6.337,14.039 0,7.639 1.777,13.961 6.337,13.961 2.7,0 5.023,-1.62 5.023,-2.931 a 0.989,0.989 0 0 0 -0.309,-0.771 4.874,4.874 0 0 1 -1.777,-3.548 3.647,3.647 0 0 1 3.477,-3.625 c 2.318,0 3.632,1.774 3.632,4.165 a 9.789,9.789 0 0 1 -1.932,5.554 0.269,0.269 0 0 1 -0.077,0.154 c 0,0.154 0.077,0.231 0.155,0.231 0.078,0 0.077,0 0.232,-0.077 l 11.591,-11.185 a 2.414,2.414 0 0 0 0.927,-1.851 2.3,2.3 0 0 0 -0.927,-1.851 L 204.46,623.48 a 0.284,0.284 0 0 0 -0.232,-0.077 c -0.077,0 -0.155,0.077 -0.155,0.231 a 0.269,0.269 0 0 0 0.077,0.154 9.789,9.789 0 0 1 1.932,5.554 c 0,2.314 -1.314,4.165 -3.632,4.165 a 3.647,3.647 0 0 1 -3.477,-3.625 4.874,4.874 0 0 1 1.777,-3.548 1.1,1.1 0 0 0 0.309,-0.771 c 0,-1.543 -2.241,-3.163 -5.023,-3.163"
         inkscape:connector-curvature="0"
         style="fill:#1852cc"
         transform="translate(398.022,14440.6)" />
      <path
         id="Path_510"
         data-name="Path 510"
         class="cls-3"
         d="m 30.7,641.036 a 8.916,8.916 0 0 1 -2.4,-6.4 9.3,9.3 0 0 1 2.318,-6.325 7.577,7.577 0 0 1 5.482,-2.471 c 3.709,0 6.337,2.623 6.337,4.86 a 2.054,2.054 0 0 1 -1.777,2.16 2.1,2.1 0 0 1 -1.314,-0.463 1.912,1.912 0 0 1 -0.541,-1.388 2,2 0 0 1 0.618,-1.466 3.119,3.119 0 0 0 -2.932,-1.543 3.741,3.741 0 0 0 -3.091,1.851 8.853,8.853 0 0 0 -1.236,4.86 8.574,8.574 0 0 0 1.236,4.782 3.766,3.766 0 0 0 3.168,1.851 3.207,3.207 0 0 0 2.932,-1.544 2.127,2.127 0 0 1 -0.618,-1.388 1.912,1.912 0 0 1 0.541,-1.388 1.82,1.82 0 0 1 1.314,-0.463 1.929,1.929 0 0 1 1.777,2.083 c 0,2.237 -2.627,4.782 -6.337,4.859 a 8.386,8.386 0 0 1 -5.487,-2.468 m 51.7,-5.631 c 0.232,0 0.309,-0.077 0.309,-0.154 v -0.463 a 2.13,2.13 0 0 0 -2.241,-2.16 c -1.7,0 -2.4,1.388 -2.473,2.777 z m -33.306,1.928 c -1.314,0 -2.164,0.617 -2.241,1.851 a 1.886,1.886 0 0 0 2.009,1.928 2.932,2.932 0 0 0 2.086,-1.08 v -1.7 a 0.761,0.761 0 0 0 -0.464,-0.694 3.09,3.09 0 0 0 -1.391,-0.309 m 48.3,-0.694 c 0,3.24 1.391,4.628 2.859,4.628 1.546,0 2.7,-1.388 2.7,-4.165 a 5.668,5.668 0 0 0 -0.85,-3.317 2.241,2.241 0 0 0 -2.009,-1.157 c -1.623,0 -2.627,1.543 -2.7,4.011 M 57.2,642.887 c -0.541,-0.154 -0.85,-0.386 -0.85,-0.848 0,-0.154 0.077,-0.309 0.077,-0.54 l 0.077,-0.077 h 0.077 a 3.5,3.5 0 0 0 0.773,-0.386 c 0.309,-0.231 0.386,-0.617 0.386,-1.543 v -4.937 c 0,-0.848 -0.232,-1.157 -0.927,-1.157 a 1.511,1.511 0 0 0 -0.541,0.077 H 56.2 l -0.077,-0.077 a 1.31,1.31 0 0 1 -0.077,-0.54 c 0.077,-1 1.082,-1.466 1.855,-1.7 a 3.412,3.412 0 0 1 0.773,-0.154 1.826,1.826 0 0 1 1.777,1.62 3.327,3.327 0 0 1 2.7,-1.774 1.842,1.842 0 0 1 1.932,1.851 1.646,1.646 0 0 1 -1.623,1.7 1.562,1.562 0 0 1 -1.546,-1.234 c -0.541,0.154 -1.314,0.926 -1.314,3.317 v 3.008 c 0,1 0.077,1.311 0.386,1.543 a 3.679,3.679 0 0 0 1.082,0.386 h 0.077 v 0.077 a 1.959,1.959 0 0 1 0.155,0.54 c 0,0.386 -0.232,0.694 -0.773,0.848 a 7.285,7.285 0 0 1 -2.164,0.231 12.251,12.251 0 0 1 -2.164,-0.231 m 9.737,0 c -0.464,-0.154 -0.85,-0.386 -0.85,-0.848 a 1.959,1.959 0 0 1 0.155,-0.54 l 0.077,-0.077 v 0 a 1.82,1.82 0 0 0 0.773,-0.386 c 0.309,-0.231 0.464,-0.617 0.464,-1.543 v -4.937 c 0,-0.848 -0.232,-1.157 -0.85,-1.157 a 1.511,1.511 0 0 0 -0.541,0.077 h -0.077 l -0.077,-0.077 a 1.5,1.5 0 0 1 -0.077,-0.54 c 0,-1 1.082,-1.466 1.777,-1.7 a 3.412,3.412 0 0 1 0.773,-0.154 1.826,1.826 0 0 1 1.777,1.62 3.327,3.327 0 0 1 2.7,-1.774 1.842,1.842 0 0 1 1.94,1.849 1.646,1.646 0 0 1 -1.623,1.7 1.426,1.426 0 0 1 -1.468,-1.234 c -0.541,0.154 -1.391,0.926 -1.391,3.317 v 3.008 c 0,1 0.155,1.311 0.386,1.543 a 3.048,3.048 0 0 0 1.082,0.386 h 0.077 l 0.077,0.077 a 1.959,1.959 0 0 1 0.155,0.54 0.968,0.968 0 0 1 -0.773,0.848 7.285,7.285 0 0 1 -2.164,0.231 13.493,13.493 0 0 1 -2.318,-0.231 m 20.632,0 c -0.541,-0.154 -0.85,-0.386 -0.85,-0.848 a 1.959,1.959 0 0 1 0.155,-0.54 l 0.077,-0.077 v 0 a 2.663,2.663 0 0 0 0.85,-0.386 c 0.232,-0.231 0.386,-0.617 0.386,-1.543 v -6.479 l -1.777,-0.077 -0.077,-0.077 a 1.7,1.7 0 0 1 -0.077,-0.617 1.056,1.056 0 0 1 1.082,-1.08 h 0.773 v -0.694 a 5.734,5.734 0 0 1 0.773,-3.394 3.924,3.924 0 0 1 3.632,-1.774 c 2.241,0 4.173,1.08 4.173,2.777 a 1.554,1.554 0 0 1 -1.546,1.62 1.6,1.6 0 0 1 -1.545,-1.543 1.553,1.553 0 0 1 0.232,-0.849 1.637,1.637 0 0 0 -1.086,-0.304 1.369,1.369 0 0 0 -1.314,0.617 3.509,3.509 0 0 0 -0.309,1.7 v 1.851 h 3.014 l 0.077,0.077 a 1.914,1.914 0 0 1 0.077,0.617 1.113,1.113 0 0 1 -1,1.157 h -0.7 a 7.093,7.093 0 0 1 -1.314,-0.077 v 6.479 c 0,1 0.155,1.311 0.464,1.543 0.232,0.231 1,0.309 1.236,0.386 h 0.077 v 0.077 a 1.1,1.1 0 0 1 0.155,0.463 c 0,0.463 -0.386,0.694 -0.927,0.848 a 9.179,9.179 0 0 1 -2.4,0.231 7.16,7.16 0 0 1 -2.318,-0.077 m 34.31,0 c -0.464,-0.154 -0.85,-0.386 -0.85,-0.848 a 1.959,1.959 0 0 1 0.155,-0.54 l 0.077,-0.077 h 0.077 a 2.385,2.385 0 0 0 0.773,-0.386 c 0.309,-0.231 0.386,-0.617 0.386,-1.543 v -4.937 c 0,-0.848 -0.155,-1.157 -0.85,-1.157 a 1.511,1.511 0 0 0 -0.541,0.077 h -0.077 V 633.4 a 1.31,1.31 0 0 1 -0.077,-0.54 c 0,-1 1.082,-1.466 1.777,-1.7 a 3.3,3.3 0 0 1 0.85,-0.154 1.826,1.826 0 0 1 1.777,1.62 3.225,3.225 0 0 1 2.7,-1.774 1.842,1.842 0 0 1 1.932,1.851 1.633,1.633 0 0 1 -1.546,1.7 1.5,1.5 0 0 1 -1.546,-1.234 c -0.541,0.154 -1.314,0.926 -1.391,3.317 v 3.008 c 0,1 0.155,1.311 0.464,1.543 a 3.679,3.679 0 0 0 1.082,0.386 h 0.077 v 0.077 a 1.959,1.959 0 0 1 0.155,0.54 0.827,0.827 0 0 1 -0.773,0.771 7.285,7.285 0 0 1 -2.164,0.231 10.313,10.313 0 0 1 -2.473,-0.154 m -21.792,0.309 a 6.025,6.025 0 0 1 -4.25,-1.7 6.216,6.216 0 0 1 -1.777,-4.474 6.049,6.049 0 0 1 6.182,-6.171 6.264,6.264 0 0 1 4.4,1.7 6.166,6.166 0 0 1 1.7,4.474 5.916,5.916 0 0 1 -1.777,4.474 6.455,6.455 0 0 1 -4.482,1.7 M 74.9,637.256 a 6.682,6.682 0 0 1 1.7,-4.628 5.764,5.764 0 0 1 4.4,-1.774 4.8,4.8 0 0 1 3.632,1.466 4.65,4.65 0 0 1 1.159,3.085 3.23,3.23 0 0 1 -0.386,1.7 v 0.077 h -7.417 a 3.551,3.551 0 0 0 3.864,3.625 3.948,3.948 0 0 0 3.014,-1.311 l 0.077,-0.077 0.077,0.077 a 1.134,1.134 0 0 1 0.464,1 c 0,1.234 -1.468,2.854 -4.714,2.854 a 6.016,6.016 0 0 1 -5.873,-6.094 m 41.11,5.4 a 4.019,4.019 0 0 1 -0.464,-1.157 1.31,1.31 0 0 1 -0.464,0.463 4.2,4.2 0 0 1 -3.014,1.157 3.8,3.8 0 0 1 -3.014,-1.311 c -1.082,-1.234 -1.082,-2.854 -1.082,-5.168 v -2.16 c 0,-0.848 -0.309,-1.157 -1.082,-1.234 H 106.5 l -0.077,-0.077 a 0.977,0.977 0 0 1 -0.077,-0.463 c 0,-1.08 1.391,-1.62 2.164,-1.774 a 2.9,2.9 0 0 1 0.773,-0.077 1.919,1.919 0 0 1 1.391,0.54 2.2,2.2 0 0 1 0.386,1.466 v 3.78 a 8.077,8.077 0 0 0 0.386,3.085 1.764,1.764 0 0 0 1.623,1 2,2 0 0 0 1.855,-1 4.92,4.92 0 0 0 0.464,-2.16 v -3.008 c -0.077,-0.848 -0.309,-1.157 -1.159,-1.234 h -0.386 l -0.077,-0.077 a 1.1,1.1 0 0 1 -0.155,-0.463 c 0.077,-1.08 1.391,-1.62 2.164,-1.774 a 2.635,2.635 0 0 1 0.773,-0.077 1.919,1.919 0 0 1 1.391,0.54 2.2,2.2 0 0 1 0.386,1.466 v 4.4 c 0,1.311 -0.077,2.083 -0.077,2.314 0.077,0.926 0.309,1.311 1.159,1.311 h 0.309 l 0.077,0.077 a 0.977,0.977 0 0 1 0.077,0.463 c 0,1 -1.391,1.466 -2.164,1.62 a 2.389,2.389 0 0 1 -0.7,0.077 v 0 a 1.052,1.052 0 0 1 -1,-0.54 m -72.33,-3.24 a 3.034,3.034 0 0 1 1.391,-2.777 5.988,5.988 0 0 1 3.477,-1 5.77,5.77 0 0 1 2.4,0.463 v -1.311 c 0,-1.311 -0.464,-2.083 -2.009,-2.083 a 5.716,5.716 0 0 0 -1.391,0.231 1.5,1.5 0 0 1 0.077,0.617 1.893,1.893 0 0 1 -0.386,1.157 1.357,1.357 0 0 1 -1.159,0.463 1.484,1.484 0 0 1 -1.468,-1.543 c 0,-1.62 1.932,-2.7 4.637,-2.7 2.086,0 3.4,0.463 4.1,1.388 0.618,0.771 0.618,2.005 0.7,3.625 v 4.32 c 0,0.848 0.464,1.08 1.468,1.234 h 0.155 v 0.154 a 1.726,1.726 0 0 1 -1.777,1.7 h -0.232 a 2.476,2.476 0 0 1 -2.164,-1.311 5.392,5.392 0 0 1 -3.4,1.311 c -2.55,-0.077 -4.4,-1.7 -4.4,-3.934"
         transform="translate(434.7,14440.937)"
         inkscape:connector-curvature="0"
         style="fill:#1852cc" />
    </g>
  </g>
  <g
     id="Group_1268-2"
     data-name="Group 1268"
     transform="matrix(3.3457315,0,0,3.3457315,-2186.7621,-50033.11)">
    <rect
       id="Rectangle_656-0"
       data-name="Rectangle 656"
       class="cls-1"
       width="154"
       height="30"
       x="647.34406"
       y="15258.454"
       style="opacity:0;fill:#c83737" />
    <g
       id="Group_1270-3"
       data-name="Group 1270"
       transform="translate(60.793043)"
       style="fill:#1852cc;fill-opacity:1"
       inkscape:export-filename="G:\Users\suitedoalex\sites\carrefour-logo-5.png"
       inkscape:export-xdpi="83.476288"
       inkscape:export-ydpi="83.476288">
      <path
         id="Path_508-7"
         data-name="Path 508"
         class="cls-2"
         d="m 675.05244,15005.875 -29.94416,28.897 a 5.9728169,5.9728169 0 0 0 0,9.557 l 29.94416,28.895 c 0.19894,0.207 0.19894,0.207 0.59933,0.207 0.19895,0 0.40044,-0.207 0.40044,-0.597 0,-0.205 -0.1989,-0.398 -0.1989,-0.597 a 50.208346,50.208346 0 0 1 0,-65.56 0.73110172,0.73110172 0 0 0 0.1989,-0.597 c 0,-0.397 -0.1989,-0.598 -0.40044,-0.598 -0.19889,0.209 -0.40039,0.209 -0.59933,0.397"
         inkscape:connector-curvature="0"
         style="fill:#ef3742;fill-opacity:1;stroke-width:2.58339858" />
      <path
         id="Path_509-7"
         data-name="Path 509"
         class="cls-3"
         d="m 698.0111,15003.481 c -11.77771,0 -16.37099,16.536 -16.37099,36.272 0,19.733 4.59068,36.065 16.37099,36.065 6.97517,0 12.97643,-4.184 12.97643,-7.572 a 2.554981,2.554981 0 0 0 -0.79828,-1.993 12.591483,12.591483 0 0 1 -4.59072,-9.166 9.4216535,9.4216535 0 0 1 8.98249,-9.363 c 5.98831,0 9.3829,4.582 9.3829,10.759 a 25.288886,25.288886 0 0 1 -4.99112,14.348 0.69493415,0.69493415 0 0 1 -0.19893,0.398 c 0,0.399 0.19893,0.598 0.40044,0.598 0.20151,0 0.1989,0 0.59934,-0.208 l 29.94417,-28.895 a 6.2363234,6.2363234 0 0 0 2.39481,-4.782 5.9418162,5.9418162 0 0 0 -2.39481,-4.781 l -29.94677,-28.896 a 0.73368512,0.73368512 0 0 0 -0.59933,-0.208 c -0.19892,0 -0.40042,0.208 -0.40042,0.601 a 0.69493415,0.69493415 0 0 0 0.19891,0.397 25.288886,25.288886 0 0 1 4.99113,14.345 c 0,5.979 -3.3946,10.759 -9.38291,10.759 a 9.4216535,9.4216535 0 0 1 -8.98249,-9.364 12.591483,12.591483 0 0 1 4.59071,-9.165 2.8417382,2.8417382 0 0 0 0.79828,-1.991 c 0,-3.985 -5.78939,-8.171 -12.97641,-8.171"
         inkscape:connector-curvature="0"
         style="fill:#1852cc;fill-opacity:1;stroke-width:2.58339858" />
    </g>
  </g>
  <rect
     id="Rectangle_656-0-6"
     data-name="Rectangle 656"
     class="cls-1"
     width="515.24268"
     height="100.37195"
     x="-467.58548"
     y="535.05103"
     style="opacity:0;fill:#c83737;stroke-width:3.3457315" />
  <path
     id="Path_510-9-1"
     data-name="Path 510"
     class="cls-3"
     d="m 130.8754,524.37323 a 40.332622,40.332622 0 0 1 -10.85669,-28.9512 42.069695,42.069695 0 0 1 10.48574,-28.61188 34.275492,34.275492 0 0 1 24.79851,-11.17801 c 16.77813,0 28.66621,11.86548 28.66621,21.98489 a 9.2915219,9.2915219 0 0 1 -8.03848,9.77115 9.4996085,9.4996085 0 0 1 -5.94404,-2.09449 8.6491673,8.6491673 0 0 1 -2.44729,-6.27885 9.0472461,9.0472461 0 0 1 2.79561,-6.63158 14.109182,14.109182 0 0 0 -13.26327,-6.97999 16.922872,16.922872 0 0 0 -13.98252,8.37334 40.047635,40.047635 0 0 0 -5.5912,21.98476 38.785544,38.785544 0 0 0 5.5912,21.63202 17.035965,17.035965 0 0 0 14.33083,8.37305 14.507259,14.507259 0 0 0 13.26328,-6.98444 9.6217463,9.6217463 0 0 1 -2.79561,-6.27872 8.6491673,8.6491673 0 0 1 2.44729,-6.27884 8.232994,8.232994 0 0 1 5.94403,-2.09435 8.726069,8.726069 0 0 1 8.03848,9.42274 c 0,10.11926 -11.88355,21.63202 -28.66619,21.98029 a 37.935103,37.935103 0 0 1 -24.82113,-11.16448 m 233.8713,-25.47246 c 1.0495,0 1.39783,-0.36208 1.39783,-0.69653 v -2.09448 a 9.6353171,9.6353171 0 0 0 -10.13746,-9.77115 c -7.69015,0 -10.85669,6.27885 -11.1869,12.56216 z m -150.66377,8.7216 c -5.94404,0 -9.78913,2.79103 -10.13745,8.3732 a 8.5315531,8.5315531 0 0 0 9.08797,8.72145 13.263263,13.263263 0 0 0 9.43626,-4.88536 v -7.69019 a 3.4424771,3.4424771 0 0 0 -2.09894,-3.13957 13.977996,13.977996 0 0 0 -6.29237,-1.39767 m 218.49099,-3.13942 c 0,14.6565 6.29237,20.93536 12.93304,20.93536 6.99353,0 12.2138,-6.27886 12.2138,-18.84102 a 25.639895,25.639895 0 0 0 -3.84508,-15.00477 10.137439,10.137439 0 0 0 -9.08795,-5.23376 c -7.34187,0 -11.88356,6.97984 -12.21381,18.14419 m -181.77273,28.28606 c -2.4473,-0.69639 -3.84509,-1.74607 -3.84509,-3.83595 0,-0.69653 0.34832,-1.39767 0.34832,-2.44275 l 0.3483,-0.36181 h 0.34835 a 15.832681,15.832681 0 0 0 3.49676,-1.74621 c 1.39779,-1.04479 1.74611,-2.79101 1.74611,-6.97985 v -22.33316 c 0,-3.83596 -1.04949,-5.23377 -4.1934,-5.23377 a 6.8351945,6.8351945 0 0 0 -2.44729,0.36181 h -0.3257 l -0.34831,-0.36181 a 5.9259463,5.9259463 0 0 1 -0.34832,-2.44275 c 0.34832,-4.5237 4.89455,-6.63171 8.39132,-7.69019 a 15.434603,15.434603 0 0 1 3.49677,-0.69667 8.2601357,8.2601357 0 0 1 8.03847,7.32825 15.050095,15.050095 0 0 1 12.2138,-8.02479 8.3325137,8.3325137 0 0 1 8.73962,8.37306 7.4458835,7.4458835 0 0 1 -7.34182,7.69019 7.0658994,7.0658994 0 0 1 -6.99352,-5.58203 c -2.44729,0.69667 -5.94405,4.18882 -5.94405,15.0049 v 13.60696 c 0,4.52356 0.34832,5.93045 1.74612,6.97985 a 16.64241,16.64241 0 0 0 4.89455,1.74621 h 0.34832 v 0.36181 a 8.8617776,8.8617776 0 0 1 0.70116,2.44275 c 0,1.74622 -1.04948,3.13956 -3.49676,3.83595 a 32.954594,32.954594 0 0 1 -9.78911,1.04509 55.418906,55.418906 0 0 1 -9.78913,-1.04509 m 44.04652,0 c -2.09897,-0.69639 -3.84508,-1.74607 -3.84508,-3.83595 a 8.8617776,8.8617776 0 0 1 0.70118,-2.44275 l 0.3483,-0.36181 v 0 a 8.232994,8.232994 0 0 0 3.49675,-1.74621 c 1.39781,-1.04479 2.09896,-2.79101 2.09896,-6.97985 v -22.33316 c 0,-3.83596 -1.04947,-5.23377 -3.84507,-5.23377 a 6.8351945,6.8351945 0 0 0 -2.44726,0.36181 h -0.34835 l -0.3483,-0.36181 a 6.7854345,6.7854345 0 0 1 -0.34832,-2.44275 c 0,-4.5237 4.89455,-6.63171 8.03847,-7.69019 a 15.434603,15.434603 0 0 1 3.49676,-0.69667 8.2601357,8.2601357 0 0 1 8.03848,7.32825 15.050095,15.050095 0 0 1 12.21377,-8.02479 8.3325137,8.3325137 0 0 1 8.77585,8.36398 7.4458835,7.4458835 0 0 1 -7.34186,7.69034 6.4506867,6.4506867 0 0 1 -6.64067,-5.58217 c -2.44728,0.69653 -6.29236,4.18896 -6.29236,15.00476 v 13.60725 c 0,4.52342 0.70117,5.9303 1.74614,6.97984 a 13.788004,13.788004 0 0 0 4.89454,1.74608 h 0.34833 l 0.34832,0.3618 a 8.8617776,8.8617776 0 0 1 0.70115,2.44275 4.3788672,4.3788672 0 0 1 -3.49676,3.83596 32.954594,32.954594 0 0 1 -9.78912,1.04521 61.037247,61.037247 0 0 1 -10.48575,-1.04521 m 93.33138,0 c -2.44729,-0.69639 -3.84507,-1.74608 -3.84507,-3.83596 a 8.8617776,8.8617776 0 0 1 0.70115,-2.44275 l 0.34832,-0.3618 v 0 a 12.046409,12.046409 0 0 0 3.84507,-1.74608 c 1.0495,-1.04494 1.74614,-2.79116 1.74614,-6.97984 v -29.30868 l -8.03848,-0.36195 -0.34833,-0.36166 a 7.6901592,7.6901592 0 0 1 -0.34832,-2.7913 4.776946,4.776946 0 0 1 4.89456,-4.88536 h 3.49676 v -3.13956 a 25.938453,25.938453 0 0 1 3.49675,-15.35318 17.750695,17.750695 0 0 1 16.42982,-8.02479 c 10.13743,0 18.87709,4.88564 18.87709,12.56217 a 7.0297104,7.0297104 0 0 1 -6.99353,7.3281 7.2377969,7.2377969 0 0 1 -6.989,-6.97984 7.0251867,7.0251867 0 0 1 1.04949,-3.84056 7.4051711,7.4051711 0 0 0 -4.91267,-1.37506 6.1928398,6.1928398 0 0 0 -5.94403,2.79088 15.873394,15.873394 0 0 0 -1.3978,7.69005 v 8.37332 h 13.6342 l 0.34831,0.36195 a 8.6582146,8.6582146 0 0 1 0.34832,2.79101 5.0347924,5.0347924 0 0 1 -4.52363,5.23391 h -3.16652 a 32.086059,32.086059 0 0 1 -5.94405,-0.3618 v 29.3084 c 0,4.5237 0.70117,5.93045 2.09898,6.97999 1.04947,1.04494 4.5236,1.39781 5.59118,1.74607 h 0.34832 v 0.36195 a 4.9759854,4.9759854 0 0 1 0.70116,2.09434 c 0,2.09449 -1.74612,3.13943 -4.19339,3.83609 a 41.522337,41.522337 0 0 1 -10.85672,1.04509 32.389143,32.389143 0 0 1 -10.48575,-0.36222 m 155.20552,0 c -2.09896,-0.69653 -3.84508,-1.7458 -3.84508,-3.83582 a 8.8617776,8.8617776 0 0 1 0.70115,-2.44275 l 0.34832,-0.3618 h 0.34832 a 10.788841,10.788841 0 0 0 3.49676,-1.74621 c 1.3978,-1.04495 1.74612,-2.79103 1.74612,-6.97985 v -22.33331 c 0,-3.83609 -0.70116,-5.23376 -3.84507,-5.23376 a 6.8351945,6.8351945 0 0 0 -2.44728,0.36193 h -0.34832 v -0.36193 a 5.9259463,5.9259463 0 0 1 -0.34832,-2.4429 c 0,-4.52356 4.89455,-6.63144 8.03848,-7.68991 a 14.927957,14.927957 0 0 1 3.84506,-0.69681 8.2601357,8.2601357 0 0 1 8.03848,7.32826 14.588685,14.588685 0 0 1 12.21381,-8.02479 8.3325137,8.3325137 0 0 1 8.73963,8.37305 7.3870764,7.3870764 0 0 1 -6.99352,7.69033 6.7854345,6.7854345 0 0 1 -6.99352,-5.58218 c -2.44729,0.69667 -5.94403,4.18884 -6.29236,15.00478 v 13.60724 c 0,4.52342 0.70114,5.9303 2.09894,6.97985 a 16.64241,16.64241 0 0 0 4.89458,1.74621 h 0.34831 v 0.3618 a 8.8617776,8.8617776 0 0 1 0.70119,2.44275 3.7410364,3.7410364 0 0 1 -3.49679,3.48755 32.954594,32.954594 0 0 1 -9.7891,1.04523 46.652125,46.652125 0 0 1 -11.18695,-0.69696 m -98.57878,1.39795 a 27.254829,27.254829 0 0 1 -19.2254,-7.69019 28.118843,28.118843 0 0 1 -8.03849,-20.23869 27.363395,27.363395 0 0 1 27.96506,-27.91519 28.335974,28.335974 0 0 1 19.90394,7.6902 27.892659,27.892659 0 0 1 7.69016,20.23867 26.761756,26.761756 0 0 1 -8.03848,20.23868 29.199989,29.199989 0 0 1 -20.27489,7.69019 M 330.81955,507.25138 a 30.226848,30.226848 0 0 1 7.69016,-20.93535 26.074163,26.074163 0 0 1 19.90392,-8.02493 21.71339,21.71339 0 0 1 16.42981,6.63144 21.034846,21.034846 0 0 1 5.24288,13.95551 14.611303,14.611303 0 0 1 -1.74612,7.69019 v 0.3618 h -33.55172 a 16.063387,16.063387 0 0 0 17.47929,16.39839 17.859264,17.859264 0 0 0 13.63421,-5.93071 l 0.34829,-0.36181 0.34833,0.36181 a 5.1297885,5.1297885 0 0 1 2.09897,4.5237 c 0,5.58217 -6.64068,12.91029 -21.32435,12.91029 a 27.214118,27.214118 0 0 1 -26.56726,-27.5668 m 185.96615,24.42765 a 18.180442,18.180442 0 0 1 -2.09896,-5.23405 5.9259463,5.9259463 0 0 1 -2.09897,2.09448 18.999217,18.999217 0 0 1 -13.63418,5.23391 17.189769,17.189769 0 0 1 -13.63422,-5.93044 c -4.89456,-5.58231 -4.89456,-12.91057 -4.89456,-23.37824 v -9.77086 c 0,-3.8361 -1.39778,-5.23392 -4.89454,-5.58218 h -1.75065 l -0.34833,-0.36194 a 4.4195798,4.4195798 0 0 1 -0.34829,-2.09448 c 0,-4.88537 6.29234,-7.32826 9.7891,-8.02479 a 13.118507,13.118507 0 0 1 3.49678,-0.36194 8.6808326,8.6808326 0 0 1 6.29235,2.44261 9.9519707,9.9519707 0 0 1 1.74611,6.63158 v 17.09954 a 36.537304,36.537304 0 0 0 1.74611,13.95522 7.9796711,7.9796711 0 0 0 7.34184,4.5237 9.0472461,9.0472461 0 0 0 8.39134,-4.5237 22.256224,22.256224 0 0 0 2.09895,-9.77101 v -13.60709 c -0.34831,-3.83596 -1.39781,-5.23377 -5.24289,-5.58204 h -1.7461 l -0.34833,-0.36194 a 4.9759854,4.9759854 0 0 1 -0.70114,-2.09448 c 0.34832,-4.88536 6.29233,-7.32811 9.7891,-8.02478 a 11.919747,11.919747 0 0 1 3.49677,-0.36195 8.6808326,8.6808326 0 0 1 6.29234,2.44276 9.9519707,9.9519707 0 0 1 1.74615,6.63157 v 19.90408 c 0,5.93032 -0.34834,9.42275 -0.34834,10.46754 0.34834,4.18884 1.39781,5.93059 5.24289,5.93059 h 1.39781 l 0.34831,0.36179 a 4.4195798,4.4195798 0 0 1 0.34831,2.09449 c 0,4.5237 -6.29237,6.63172 -9.78912,7.32812 a 10.806936,10.806936 0 0 1 -3.16654,0.36208 v 0 a 4.7588516,4.7588516 0 0 1 -4.52362,-2.44275 M 189.57393,517.03117 a 13.724672,13.724672 0 0 1 6.29237,-12.56202 27.087454,27.087454 0 0 1 15.72863,-4.52356 26.101305,26.101305 0 0 1 10.8567,2.09448 v -5.93044 c 0,-5.9303 -2.09897,-9.42274 -9.08797,-9.42274 a 25.857028,25.857028 0 0 0 -6.29235,1.04495 6.7854345,6.7854345 0 0 1 0.3483,2.79115 8.5632185,8.5632185 0 0 1 -1.7461,5.23377 6.1385563,6.1385563 0 0 1 -5.24288,2.09434 6.7130565,6.7130565 0 0 1 -6.64069,-6.97984 c 0,-7.32839 8.73965,-12.21376 20.97605,-12.21376 9.43629,0 15.38032,2.09449 18.54685,6.27885 2.7956,3.48755 2.7956,9.06986 3.16654,16.39798 v 19.54214 c 0,3.83596 2.09896,4.88551 6.64068,5.58204 h 0.70116 v 0.69681 a 7.8077734,7.8077734 0 0 1 -8.03847,7.69005 h -1.04949 a 11.200491,11.200491 0 0 1 -9.78912,-5.93043 24.391375,24.391375 0 0 1 -15.38032,5.93043 c -11.53524,-0.36194 -19.90394,-7.69005 -19.90394,-17.79607"
     inkscape:connector-curvature="0"
     style="fill:#1852cc;fill-opacity:1;stroke-width:4.52362299"
     inkscape:export-filename="G:\Users\suitedoalex\sites\carrefour-logo-5.png"
     inkscape:export-xdpi="83.476288"
     inkscape:export-ydpi="83.476288" />
</svg>
