<svg alt="Integralmedica" class="logo-default" height="80" viewBox="0 0 467.02 235.85" width="158" xmlns="http://www.w3.org/2000/svg"><defs></defs><defs></defs><path d="M525.85 364a17.28 17.28 0 00-11.78-4.35H343.44L379 303l-109.3 56.69H102.53A25 25 0 0087.74 365a26.82 26.82 0 00-9.47 12.75L64.8 419a18 18 0 00-1 5.8 15.31 15.31 0 004.89 11.36 17.07 17.07 0 0011.66 4.35h187.29l-36.55 98.36 61.66-98.36h198a27 27 0 0015.6-5.21 26.44 26.44 0 009.71-12.82l13.78-41.26a18.44 18.44 0 001-5.75 15.34 15.34 0 00-4.99-11.47z" fill="#fff" transform="translate(-63.82 -303.04)"></path><path d="M80.41 435c-7.86 0-13-6.38-10.34-14.24l13.47-41.26c2.62-7.87 11.13-14.24 19-14.24h411.53c7.87 0 13.17 6.37 10.54 14.24l-13.78 41.26c-2.63 7.86-11.19 14.24-20 14.24z" fill="#1d1d1b" transform="translate(-63.82 -303.04)"></path><path d="M292.23 18.04l.64-.24-95.82 153.46-6.3 16.93L300 13.96l-7.77 4.08z" fill="#1d1d1b"></path><path d="M292.98 17.65L187.82 72.11l49.76-9.92-40.53 109.07 95.93-153.61z" fill="#e1251b"></path><path d="M107.42 386.76a3.2 3.2 0 00.07-.39v-.29a2.6 2.6 0 00-.49-1.55 2.43 2.43 0 00-1.76-1h-6.42a2.85 2.85 0 00-2.59 1.82v.05l-1.86 5.14-6.16 17.75-1.85 4.91a3.18 3.18 0 00-.16.72 1.49 1.49 0 000 .28 2.51 2.51 0 002.22 2.54h6.86a2.87 2.87 0 002.43-1.91l9.71-28zm322.77 5l-.22-2.19v-.09a6.94 6.94 0 00-3.65-5.13l-.18-.08-.18-.05a17.84 17.84 0 00-4-.62h-20.47a2.87 2.87 0 00-2.37 1.89l-.07.19-1.62 4.4v-.3a5.7 5.7 0 00-3-5.27c-1.81-.89-3.79-1-6.19-1h-11.9a14.81 14.81 0 00-7.6 1.75 9.53 9.53 0 00-4.33 5.56l-.33 1v-.3a9 9 0 00-1.45-5.09 6.88 6.88 0 00-4.28-2.73H356l-22-.1a2.85 2.85 0 00-2.66 1.95l-1.83 5.05-6 17.08a2.5 2.5 0 00-1.41-.75h-18.22l7-20.07v-.14V386.15a2.61 2.61 0 00-.54-1.62 2.43 2.43 0 00-1.93-1H302a2.85 2.85 0 00-2.41 1.92l-1.73 5-.29.83a7.42 7.42 0 00-3.3-5.88 13.45 13.45 0 00-7.53-1.82h-16.5a2.86 2.86 0 00-2.44 1.92l-1.55 4.5v.06a3.37 3.37 0 00-.07.45v.26a2.54 2.54 0 002.32 2.57h16.77l-.59 1.68h-17.41a5.16 5.16 0 00-4.12 1.75l1.68-5.13-.22-2.16v-.1a6.93 6.93 0 00-3.66-5.13l-.17-.09-.18-.05a19 19 0 00-4-.61h-19.4a2.84 2.84 0 00-2.64 1.93l-1.91 5.22-1.52 4.35H213a2.84 2.84 0 00-2.43 1.92l-1.6 4.65v.08a1.54 1.54 0 00-.08.42v.31A2.54 2.54 0 00211 405h5.49l-.44 1.25c-.32.47-.54.62-.69.67h-9.31l4.6-12.9c.32-.47.53-.61.68-.67l17.1.07a2.83 2.83 0 002.59-1.77v-.06l1.72-4.73v-.15a4.5 4.5 0 00.06-.45v-.16a2.52 2.52 0 00-2.12-2.54H212a14.79 14.79 0 00-7.6 1.75 9.4 9.4 0 00-3.64 3.86 5.55 5.55 0 00-3-4.63c-1.82-.89-3.78-1-6.19-1h-11.9a14.81 14.81 0 00-7.6 1.75 8.38 8.38 0 00-1.33.94v-.15a2.58 2.58 0 00-.56-1.63 2.46 2.46 0 00-1.9-.94h-25.81a2.87 2.87 0 00-2.64 1.93l-.93 2.67a7.72 7.72 0 00-.9-1.82 6.87 6.87 0 00-4.29-2.73H112a2.83 2.83 0 00-2.59 1.79v.06l-1.83 5.24-6 17.64-1.88 5.1v.11a2.74 2.74 0 00-.08.44 1.19 1.19 0 000 .25 2.65 2.65 0 00.5 1.57 2.49 2.49 0 001.79 1h6.65a2.85 2.85 0 002.44-1.96l7.57-21.38h7.69a5.49 5.49 0 01.65 0v.13L120 413.38v.37a3.83 3.83 0 000 .39 2.77 2.77 0 00.51 1.58 2.54 2.54 0 001.79 1h6.7a2.88 2.88 0 002.47-1.85v-.06l7.63-21.92a2.46 2.46 0 001.35.53h6.1l-5 14.74-1.8 5.06a2.83 2.83 0 00-.13.48 2.4 2.4 0 000 .44 2.61 2.61 0 00.57 1.65 2.46 2.46 0 001.88.92h6.12a2.82 2.82 0 002.64-2l7.35-21.34h8.2a2.73 2.73 0 00.51-.07l-5.19 15.15v.17a8.81 8.81 0 00-.11 1.36 6.09 6.09 0 002.24 4.88 10.09 10.09 0 006.45 1.8h20.12a2.87 2.87 0 002.46-1.86l1.42-3.83a7 7 0 003 4 13.73 13.73 0 007.49 1.73h10.11a14.75 14.75 0 007.52-1.7 9.43 9.43 0 002.45-2.07l-.09.25a2.12 2.12 0 00-.18.72 1.39 1.39 0 000 .27 2.65 2.65 0 00.56 1.64 2.47 2.47 0 001.92.94h6.37a2.85 2.85 0 002.65-1.94l3.09-8.78h6.57l1.7 8.67a2.51 2.51 0 002.43 2h7a2.62 2.62 0 002-.91 2.89 2.89 0 00.71-1.65V414a.77.77 0 000-.1v-.07a5.36 5.36 0 001.73 1.55 12.26 12.26 0 006.31 1.36H287a2.84 2.84 0 002.63-1.91l2.06-5.92a5.87 5.87 0 00-.1 1 7.14 7.14 0 00.33 2.1 6 6 0 003.33 3.71 13.1 13.1 0 005.58 1h19.46a2.82 2.82 0 001.7-.88 2.49 2.49 0 001.64.88h6.83a2.87 2.87 0 002.44-1.92l7.45-21.33h.32l-6.91 19.86a3 3 0 00-.08.42 1.8 1.8 0 000 .27v.09a2.52 2.52 0 002.24 2.56h5.28a2.89 2.89 0 002.44-1.89l7.36-21.3h.39a.34.34 0 000 .12l-6.87 19.8v.14a.78.78 0 000 .14 1.45 1.45 0 000 .31v.09a2.6 2.6 0 00.5 1.56 2.44 2.44 0 001.74 1h7a2.86 2.86 0 002.37-1.74v-.08l6.18-17.76-3.9 11.36v.17a8 8 0 00-.12 1.37 6.09 6.09 0 002.24 4.88 10.09 10.09 0 006.45 1.8h20.25a2.83 2.83 0 002.19-1.56 2.36 2.36 0 00.37.65 2.45 2.45 0 001.91.92h20.83a15.39 15.39 0 007.49-1.6 8.17 8.17 0 004-5.25zM178.39 394a1.69 1.69 0 01.69-.67l9.42.08-.65 1.84h-9.92zm14.09 15.68l1.57.57zm1.67-1.72l-.08-.12a2.48 2.48 0 00-1.89-.94h-18.26l.58-1.68h17.26a5.56 5.56 0 003.36-1.05c.17-.13.32-.28.47-.42zm57.95-12.73a1.78 1.78 0 01-.46.78c-.1.07-.1.09-.36.1h-8.82l1-2.79h9.26zm6.64 12.68v.08c-.1.37-.17.73-.23 1.09l-.84-3.62a8.43 8.43 0 002.13-1.71q.36-.4.69-.84zm21.82-1.09h-9.86l.64-1.84h9.87zM375.07 394a1.67 1.67 0 01.69-.68l9.42.08-.65 1.84h-9.93zm16 14.27v.11a3.39 3.39 0 00-.29-.52 2.45 2.45 0 00-1.91-1H370.6l.59-1.68h17.25a5.56 5.56 0 003.36-1.05 5.69 5.69 0 001.14-1.16zm22.06-1.55c0 .07-.18.16-.94.24h-8.59l4.85-13.58h9.21zm92.72-15.48a7.37 7.37 0 00-3.3-5.91 13.5 13.5 0 00-7.54-1.82h-16.3a2.85 2.85 0 00-2.64 1.92l-1.54 4.5v.07l-.06.26a1.67 1.67 0 000 .39v.09a2.66 2.66 0 00.56 1.63 2.45 2.45 0 001.93.95h16.6l-.59 1.68h-17.43a5.59 5.59 0 00-3.37 1.05 6.18 6.18 0 00-2.05 2.88l-3 8.51a2.4 2.4 0 00-1.42-.48h-17.08l4.67-12.86a2.15 2.15 0 011.77-.81 1.37 1.37 0 01.28 0h15.44a2.87 2.87 0 002.37-1.88l1.51-4.52v-.1a2.83 2.83 0 00.06-.44v-.23a2.5 2.5 0 00-2.15-2.54H454.81a24.9 24.9 0 00-4.81.42h-.18l-.15.06a12.27 12.27 0 00-6.51 5.46l.88-2.53a2.44 2.44 0 00.17-.75v-.22a2.61 2.61 0 00-.49-1.55 2.43 2.43 0 00-1.75-1h-6.4a2.88 2.88 0 00-2.63 1.88l-1.94 5.31-6.14 17.67-1.86 4.88a2.3 2.3 0 00-.16.63 2 2 0 000 .32 2.56 2.56 0 00.57 1.64 2.43 2.43 0 001.88.92h6.43a2.84 2.84 0 002.64-1.91l2.08-6a5.63 5.63 0 00-.11 1.16 6.86 6.86 0 00.32 2.1 6 6 0 003.33 3.67 13.26 13.26 0 005.54 1h18.53a2.83 2.83 0 002.47-1.91l.69-2a5.53 5.53 0 002.29 2.52 12.27 12.27 0 006.32 1.36h19.6a2.88 2.88 0 002.41-1.91l5.5-15.88 2.55-7.24zm-17.06 15.57H479l.65-1.84h9.85z" fill="#1d1d1b" transform="translate(-63.82 -303.04)"></path><path d="M425 414.1a.22.22 0 010-.14l1.85-4.94 6.15-17.63 1.9-5.22a.77.77 0 01.67-.55h6.2a.45.45 0 01.33.52.25.25 0 010 .14l-9.64 27.79a.76.76 0 01-.66.54h-6.4c-.23 0-.39-.23-.36-.51zM226.68 414.08a.89.89 0 010-.14l1.87-5 6-17.53 1.91-5.22a.77.77 0 01.66-.55h19.27a16 16 0 013.54.54 4.79 4.79 0 012.51 3.65l.17 1.61-2.63 8c-.65 1.79-2.68 4.54-4.73 4.61h-.18l2.25 9.7a1 1 0 010 .25.67.67 0 01-.58.66h-7a.37.37 0 01-.36-.33l-2-10.38h-9.81l-3.59 10.18a.76.76 0 01-.66.54h-6.37c-.23 0-.39-.24-.37-.53zm26.44-22.87H242l-2.47 7h11.8c1.34 0 2.28-.79 2.83-2.36l.86-2.73c.1-1.28-.62-1.72-1.85-1.94zM105.37 386.25l-9.67 27.83a.77.77 0 01-.61.53h-6.48a.41.41 0 01-.32-.51.48.48 0 010-.18l1.86-5 6.16-17.73 1.84-5.1a.76.76 0 01.64-.51h6.24a.44.44 0 01.33.52v.11zM108.34 414.61H102c-.22 0-.36-.24-.35-.51v-.14l1.85-5 6-17.62 1.82-5.18a.74.74 0 01.64-.5h21.24c2.64.57 4 2.51 4.08 5.8l-7.89 22.66a.79.79 0 01-.64.53h-6.49a.43.43 0 01-.35-.51 1 1 0 010-.12l6.81-19.72q1-3-2.61-2.95H117l-8 22.73a.73.73 0 01-.62.53zM305.16 385.62h3.33c.23 0 .39.24.37.52v.1l-7.4 21.24c0 .93.49 1.43 1.53 1.5h18.9a.44.44 0 01.31.52.27.27 0 010 .12l-1.56 4.46a.78.78 0 01-.6.53h-19.26q-5.92 0-6.89-3.22a4.65 4.65 0 01-.12-2.47l6.12-17.82 1.73-4.93a.8.8 0 01.61-.55zM175 397.37h14.4l1.52-4.31c-.08-1.17-.87-1.76-2.35-1.76l-9.68-.07a3.56 3.56 0 00-2.35 1.83l-1.54 4.31zm17.53 12.32l-1.62 4.39a.77.77 0 01-.63.53h-20c-5.55 0-7-2.63-6.49-5.58l6-17.56q1.8-5.84 9.9-5.83h11.9c4.63 0 7 .62 7.06 4.19a4.33 4.33 0 01-.35 1.88l-3.08 8.86a3.46 3.46 0 01-3.44 2.55H173l-1.39 4c.16 1.28.79 1.92 1.94 1.92h18.6c.23 0 .39.23.36.51a.4.4 0 010 .15zM149.45 391.31h-8.9a.43.43 0 01-.34-.51v-.11l1.58-4.52a.77.77 0 01.66-.55h25.8a.43.43 0 01.36.52v.14l-1.61 4.49a.76.76 0 01-.66.54h-9.7l-7.84 22.76a.74.74 0 01-.65.54h-6.09a.43.43 0 01-.37-.51.75.75 0 010-.16l1.82-5.1 5.87-17.53zM272.52 391.23h-3.91a.44.44 0 01-.35-.52v-.1l1.51-4.42a.78.78 0 01.62-.55h16.38c5.57 0 8.5 2 8.73 5.75l-2.42 6.84-5.49 15.84a.74.74 0 01-.65.54h-19.38q-6.93 0-7.05-4.23a6.94 6.94 0 01.25-1.84l3.06-8.85a3.47 3.47 0 013.45-2.56h18.86l1.41-4c-.14-1.27-.79-1.91-1.93-1.91h-13.09zm11.67 11.65h-14.34l-1.52 4.31c.09 1.17.88 1.76 2.36 1.76h11.37l1.67-4.75.46-1.32zM362 391.57l-7.85 22.55a.76.76 0 01-.6.49h-6.64a.44.44 0 01-.34-.51.5.5 0 000-.12l6.83-19.66q1-3-2.61-2.95h-1.24l-8 22.71a.79.79 0 01-.63.53h-4.9a.42.42 0 01-.34-.51.33.33 0 010-.15l7.85-22.58h-4.73l-7.93 22.71a.77.77 0 01-.62.53h-6.46a.43.43 0 01-.34-.51.59.59 0 010-.14l1.88-5 6.18-17.67 1.83-5.07a.76.76 0 01.66-.55l22 .11h1.88c2.65.57 4 2.5 4.07 5.79zM230.75 386.28l-1.64 4.52a.74.74 0 01-.64.5l-17.36-.07a3.57 3.57 0 00-2.34 1.83l-5 14.05c.15 1.28.79 1.92 1.94 1.92h9.93a3.56 3.56 0 002.34-1.84l1.53-4.31h-8.22a.45.45 0 01-.32-.52.61.61 0 010-.13l1.56-4.54a.78.78 0 01.61-.55h15.56l-4 11.64q-1.8 5.84-9.9 5.83h-10.1q-8.34 0-8.68-5.58l6-17.56q1.82-5.84 9.9-5.83h18.51a.43.43 0 01.32.51.51.51 0 010 .13zM401.1 386.2a.78.78 0 01.61-.53h20.12a16.59 16.59 0 013.54.54 4.81 4.81 0 012.51 3.65l.17 1.61-6.13 17.83q-1.26 5.31-9.45 5.31h-20.83a.43.43 0 01-.37-.52.94.94 0 010-.16l1.8-4.95 6.11-17.65 1.88-5.11zm17.45 5.09H407l-6.4 17.81h11.72a3 3 0 002.79-1.51l4.89-14.36a1.53 1.53 0 00-1.4-1.94zM468.86 385.67h3.48a.44.44 0 01.32.52.4.4 0 010 .15l-1.45 4.35a.81.81 0 01-.61.53h-15a4.45 4.45 0 00-4.09 1.82l-5.28 14.55a2.62 2.62 0 00-.05.91c.06.32.61.52 1.64.6h18c.23 0 .39.23.36.51a.28.28 0 010 .15l-1.49 4.32a.74.74 0 01-.62.53h-18.4c-3.92 0-6.2-1.05-6.85-3.17a4.72 4.72 0 01-.12-2.46l6.1-17.83a10.21 10.21 0 015.7-5 23.29 23.29 0 014.44-.43h14.05zM492.47 402.88h-14.35l-1.52 4.31c.09 1.17.88 1.76 2.36 1.76h11.38l1.66-4.75.48-1.32zm8.9-4.65l-5.5 15.85a.76.76 0 01-.61.53h-19.42q-6.94 0-7-4.23a6.5 6.5 0 01.24-1.84l3.06-8.85a3.47 3.47 0 013.45-2.56h18.87l1.4-4c-.14-1.27-.79-1.91-1.94-1.91h-17c-.23 0-.39-.23-.37-.52v-.14l1.49-4.38a.77.77 0 01.66-.55h16.34c5.56 0 8.52 2 8.73 5.75l-2.41 6.84zM371.63 397.37H386l1.53-4.31c-.1-1.17-.89-1.76-2.37-1.76l-9.68-.07a3.56 3.56 0 00-2.35 1.83l-1.54 4.31zm17.53 12.32l-1.63 4.43a.76.76 0 01-.59.49h-20c-5.54 0-7-2.63-6.49-5.58l6-17.56q1.8-5.84 9.9-5.83h11.9c4.63 0 7 .62 7.06 4.19a4.19 4.19 0 01-.35 1.88l-3.07 8.86a3.48 3.48 0 01-3.45 2.55h-18.75l-1.4 4c.15 1.28.8 1.92 1.94 1.92h18.61c.22 0 .37.23.36.51v.15z" fill="#fff" transform="translate(-63.82 -303.04)"></path></svg>