<svg height="1490" viewBox="93.1 86.41 657.32 422.69" width="2500" xmlns="http://www.w3.org/2000/svg"><path d="m701.45 92.08c23.92 0 43.3 19.39 43.3 43.3v324.75c0 23.92-19.39 43.3-43.3 43.3h-559.38c-23.92 0-43.3-19.39-43.3-43.3v-324.74c0-23.92 19.39-43.3 43.3-43.3h559.38m0-5.68h-559.38c-27 0-48.97 21.97-48.97 48.97v324.75c0 27 21.97 48.97 48.97 48.97h559.38c27 0 48.97-21.97 48.97-48.97v-324.74c0-27-21.97-48.97-48.97-48.97z" fill="#fff"/><path d="m744.75 135.39c0-23.92-19.39-43.3-43.3-43.3h-559.38c-23.92 0-43.3 19.39-43.3 43.3v257.15h645.99v-257.15z" fill="#1a396e"/><path d="m142.07 503.44h559.38c23.92 0 43.3-19.39 43.3-43.3v-67.6h-645.99v67.6c0 23.92 19.39 43.3 43.3 43.3z" fill="#ee3224"/><g fill="#fff" fill-rule="evenodd"><path d="m193.9 167.18c.14-2.7 1-3.52 4.29-3.43l31.85.02c3.04-.07 3.98 1.26 3.73 4.04v39.19s192.51-84.42 479.73-73.53c1.3.05 3.75.38 3.91 2.65v22.34s-.69 1.71-2.03 1.71c-25.4-.05-287.17-2.96-482.29 95.8v98.61c-.01 2.6-.96 3.59-3.12 3.53h-33.48c-1.99.15-2.5-.67-2.69-2.94l-.04-79.53s-16.7 3.04-52.4 52.83c.09.05-1.99 1.61-3.4.16-8.62-8.92-40.11-48.16 55.8-107.79l.14-53.65z"/><path d="m311.97 239.41c-2.2-.2-4.47-.33-6.84-.33-5.47 0-10.55.59-15.3 1.63-10.42 2.3-19.13 7.05-26.03 14.4-1.45 1.54-2.77 3.18-4.01 4.88-7.37 10.07-11.08 22.91-11.08 38.55 0 18.48 5.32 32.72 15.92 42.71 10.61 10.01 25.86 15.01 45.77 15.01 7.72 0 14.75-.75 21.13-2.18 4.37-1 8.95-2.41 13.71-4.24.2-.07.4-.14.59-.21.35-.12.71-.28 1.08-.47 2.22-1.14 4.52-3.68 4.95-10.02 0-.15.04-.27.04-.42v-10.88c0-.09-.03-.18-.04-.26-.26-2.3-2.79-5.09-6.06-3.9-2.63 1.11-3.85 1.41-9.93 3.45-2.26.77-4.46 1.34-6.62 1.82-5.04 1.7-10.2 2.58-15.48 2.58-10.62 0-18.68-2.32-24.16-6.98-5.45-4.67-8.43-11.37-8.89-20.18h68.29c2.95-.11 4.53-1.5 4.74-4.16v-8.25c0-17.05-4.06-30.14-12.21-39.23-6.93-7.77-16.82-12.18-29.59-13.32zm-20.09 44.28h-11.25c.48-7.79 2.67-13.46 6.59-17 3.95-3.53 8.97-5.3 15.1-5.3 1.66 0 3.2.12 4.64.36 4.25.7 7.54 2.45 9.86 5.23 3.14 3.75 4.75 9.32 4.92 16.71zm142.51-44.2c-6.47 0-12.37 1.29-17.71 3.94-5.31 2.65-10.86 6.42-16.61 11.35v-8.11c-.12-2.85-1.55-4.18-5.82-3.96h-22.52c-2.62.32-4.1 1.69-4.45 4.12v100.84c.29 5.06 1.51 6.07 4.26 5.75h24.58c4.04-.31 3.82-2.38 3.95-5.23v-73.12c.4-.32 1.2-.93 2.28-1.63h.01c.77-.51 1.67-1.06 2.74-1.62 3.8-2 9.35-3.98 15.81-3.49 3.12.17 5.66.69 7.54 1.59 2.31 1.13 4.06 2.9 5.25 5.33 1 2.12 1.73 5.39 2.13 9.83.42 4.44.65 8.92.65 13.37v50.5c.45 3.4.7 4.3 4.09 4.48h24.8c3.14-.11 3.98-1.03 3.88-3.96v-68.21c0-13.87-3.08-24.31-9.22-31.31-6.16-6.96-14.7-10.44-25.65-10.44zm151.7-39.75h-23.56c-2.52.44-4.01 1.67-4.48 3.7v43.32c-4.1-2.18-8.07-3.99-11.95-5.4-3.92-1.41-8.89-2.11-14.96-2.11s-11.69 1.37-17.53 4.08c-5.84 2.73-10.81 6.58-14.92 11.49-4.32 5.19-7.74 11.43-10.24 18.7-2.52 7.26-3.72 15.6-3.72 25 0 17.63 3.69 31.65 11.09 42.04s17.27 15.6 29.64 15.6c6.39 0 12-1.19 16.89-3.52 4.88-2.33 10.13-6 15.71-10.99v9.18c.08 1.76 1.01 2.33 2.33 2.35h28.01c1.63.05 2.44-.77 2.42-2.46v-147.17c-.25-3.16-2.07-4.16-4.71-3.82zm-27.76 122.92c-2.52 1.97-5.43 3.57-8.74 4.79-3.3 1.19-6.43 1.82-9.38 1.82-7.59 0-13.08-2.45-16.52-7.35-3.41-4.91-5.11-12.79-5.11-23.65s2.1-18.38 6.37-24.23c4.29-5.8 10.69-8.74 19.23-8.74 2.1 0 4.39.24 6.91.71 2.55.45 4.97 1.22 7.23 2.26v54.39zm136.57-74.35c-8.22-6.21-21.51-9.34-39.94-9.34-7.76 0-15.45.66-23.2 2.01-5.3.9-8.24 1.91-10.62 2.75-2.53.89-5.67 3.16-6.07 10.91v10.88c.08 2.34 2.71 5.4 6.1 4.16 2.63-1.11 3.85-1.41 9.93-3.45 6.07-2.06 11.79-3.07 17.13-3.07 8.88 0 15.63 1.18 20.2 3.53 4.55 2.34 6.84 6.63 6.84 12.79v.6c-9.58.58-18.8 1.52-27.72 2.79-8.9 1.23-16.36 3.35-22.38 6.33-6.07 2.94-10.76 7.02-14.08 12.17-3.31 5.15-4.95 11.78-4.95 19.91 0 10.17 3.24 18.52 9.73 25.04 6.51 6.54 14.56 9.83 24.19 9.83 4.08 0 7.87-.41 11.28-1.14 3.42-.78 6.73-1.94 9.93-3.52 2.28-1.19 4.73-2.8 7.31-4.83 2.58-2.05 4.76-3.8 6.5-5.24v7.44c-.08 2.84 1.46 4.11 4.11 4.3h23.96c2.56-.44 3.91-2.05 4.03-4.84v-70.69c0-13.33-4.09-23.11-12.28-29.34zm-19.82 75.71c-2.53 2.37-5.48 4.28-8.82 5.76-3.35 1.45-6.67 2.18-9.91 2.18-4.1 0-7.11-.31-9.03-.95-1.94-.62-3.59-1.6-4.99-2.91-1.46-1.33-2.35-2.74-2.72-4.18-.37-1.45-.53-3.34-.53-5.67 0-3.48.84-6.34 2.55-8.47 1.74-2.18 4.22-3.79 7.48-4.93 2.66-.92 6.54-1.73 11.67-2.43s9.91-1.24 14.3-1.64v23.25zm-367.49 155.14c0 .28-.23.38-.35.4-1.92.38-3.97.68-6.12.92-2.3.24-5.07.34-8.39.34-7.38 0-12.9-1.17-16.49-3.54-3.61-2.35-5.42-6.36-5.42-12.06v-20.61c0-.66-.33-1.05-.99-1.16h-4.6c-1.54.11-2.01.1-2.04-1.33l-.17-7.7c-.02-.91.39-1.12 1.36-1.08l5.21-.06c.83-.15 1.24-.63 1.23-1.44v-9.93c.05-1.18.23-1.75 1.51-1.9l15.9-.04c1.26.02 1.67.62 1.66 1.55v10.54c.2.76.68 1.17 1.43 1.23h14.04c1.2.02 2.19.35 2.22 1.73v6.56c.04 1.17-.63 1.8-1.99 1.88h-13.6c-1.25.04-2.1.63-2.1 1.76v14.76c0 1.63.02 3.04.05 4.26.03 1.23.32 2.32.84 3.3.48.96 1.36 1.73 2.6 2.3 1.26.58 3.07.85 5.46.85.97 0 2.26-.19 3.84-.51 1.38-.29 2.4-.58 3.06-.85.11-.04.4-.12.6-.13h.67c.34.03.55.2.57.54v9.42zm50.94-11.23c.28-.22.38-.63.46-1.26v-8.28c.01-.24-.26-.39-.48-.37-2.41.2-5.03.38-7.8.67-2.97.27-5.2.59-6.76 1.02-1.87.43-3.31 1.12-4.33 2.03-.99.89-1.47 2.07-1.47 3.52 0 .95.09 1.74.32 2.33.19.62.73 1.19 1.57 1.74.81.56 1.74.95 2.87 1.23 1.12.25 2.86.39 5.23.39 1.89 0 3.79-.3 5.75-.92 1.92-.61 3.16-1.09 4.64-2.1zm.46 7.36c-.04-.19-.22-.21-.34-.14-.95.57-2.11 1.23-3.43 2-1.51.83-2.94 1.55-4.27 2.05-1.86.65-3.79 1.12-5.79 1.42-1.99.32-4.2.45-6.57.45-5.61 0-10.31-1.38-14.1-4.09-3.78-2.75-5.69-6.26-5.69-10.52 0-3.41.97-6.18 2.9-8.34 1.93-2.17 4.66-3.87 8.2-5.13 3.51-1.25 7.86-2.12 13.05-2.65 5.18-.52 10.38-.9 15.96-1.15.13-.03.2-.11.19-.26 0-2.64-1.32-4.45-3.98-5.45-2.67-1.01-6.6-1.52-11.78-1.52-3.13 0-6.45.45-9.99 1.33-3.56.87-6.21 1.51-7.74 1.93-.83.13-1.62.09-1.62-1.43v-7.48c.15-1.92 1.67-2.49 2.78-2.66 1.84-.29 4.17-.62 6.97-.97 4.5-.55 9.04-.85 13.55-.85 10.78 0 18.53 1.3 23.34 3.93 4.76 2.64 7.16 6.74 7.16 12.34v30.07c-.06 1.09-.57 1.66-1.53 1.72h-15.72c-1.13 0-1.58-.45-1.54-1.36v-3.24zm-126.41-7.36c.28-.22.38-.63.46-1.26v-8.28c.01-.24-.26-.39-.48-.37-2.41.2-5.03.38-7.8.67-2.97.27-5.2.59-6.76 1.02-1.87.43-3.31 1.12-4.33 2.03-.99.89-1.47 2.07-1.47 3.52 0 .95.09 1.74.32 2.33.19.62.73 1.19 1.57 1.74.81.56 1.74.95 2.87 1.23 1.12.25 2.86.39 5.23.39 1.89 0 3.79-.3 5.75-.92 1.92-.61 3.16-1.09 4.64-2.1zm.45 7.36c-.04-.19-.22-.21-.34-.14-.95.57-2.11 1.23-3.43 2-1.51.83-2.94 1.55-4.27 2.05-1.86.65-3.79 1.12-5.79 1.42-1.99.32-4.2.45-6.57.45-5.61 0-10.31-1.38-14.1-4.09-3.78-2.75-5.69-6.26-5.69-10.52 0-3.41.97-6.18 2.9-8.34 1.93-2.17 4.66-3.87 8.2-5.13 3.51-1.25 7.86-2.12 13.05-2.65 5.18-.52 10.38-.9 15.96-1.15.13-.03.2-.11.19-.26 0-2.64-1.32-4.45-3.98-5.45-2.67-1.01-6.6-1.52-11.78-1.52-3.13 0-6.45.45-9.99 1.33-3.56.87-6.21 1.51-7.74 1.93-.83.13-1.62.09-1.62-1.43v-7.48c.15-1.92 1.67-2.49 2.78-2.66 1.84-.29 4.17-.62 6.97-.97 4.5-.55 9.04-.85 13.55-.85 10.78 0 18.53 1.3 23.34 3.93 4.76 2.64 7.16 6.74 7.16 12.34v30.07c-.06 1.09-.57 1.66-1.53 1.72h-15.72c-1.13 0-1.58-.45-1.54-1.36v-3.24zm191.11 5.78c-5.14 0-9.87-.48-14.13-1.44-4.29-.98-8-2.46-11.19-4.48-3.11-2.04-5.55-4.59-7.26-7.67-1.72-3.08-2.59-6.68-2.59-10.83 0-4.35.94-8.09 2.77-11.27 1.84-3.15 4.41-5.77 7.72-7.85 3.21-1.98 6.91-3.43 11.09-4.34 4.19-.9 8.51-1.37 13.02-1.37 4.04 0 7.77.36 11.17 1.02 2.93.6 5.69 1.35 8.29 2.25.43.14 1.2.56 1.26 1.41v10.19c0 .77-.13 1.55-.7 1.55h-1.68c-.25 0-.37-.05-.57-.18-.69-.46-1.5-.96-2.42-1.53-1.03-.66-2.29-1.3-3.83-1.93-1.43-.59-3-1.11-4.74-1.52-1.73-.39-3.74-.59-6.01-.59-5.06 0-8.95 1.27-11.66 3.83-2.74 2.52-4.12 5.99-4.12 10.34s1.43 7.92 4.2 10.27c2.79 2.31 6.78 3.48 11.88 3.48 2.38 0 4.56-.2 6.47-.64 1.9-.44 3.52-.93 4.78-1.53 1.2-.55 2.23-1.16 3.17-1.77.88-.6 1.4-.94 2.18-1.53.3-.09.54-.29.9-.27h1.29c.52.03.8.32.84.88v10.54c.01.89-.37 1.43-1.03 1.73-3 1.14-5.09 1.62-8.34 2.29-3.25.64-6.85.97-10.8.97zm71.56-13.45v-9.64c-2.56.18-5.31.39-8.29.7-2.96.27-5.21.59-6.74 1.02-1.89.43-3.34 1.12-4.32 2.03-.99.89-1.48 2.07-1.48 3.52 0 .95.09 1.74.3 2.33.22.62.72 1.19 1.57 1.74.8.56 1.75.95 2.88 1.23 1.14.25 2.86.39 5.24.39 1.89 0 3.8-.3 5.74-.92 1.94-.61 3.62-1.39 5.11-2.4zm0 7.61c-.04-.14-.21-.17-.32-.1-.97.58-2.12 1.24-3.47 2.01-1.51.83-2.91 1.55-4.25 2.05-1.86.65-3.78 1.12-5.79 1.42-1.99.32-4.2.45-6.55.45-5.63 0-10.33-1.38-14.11-4.09-3.78-2.75-5.69-6.26-5.69-10.52 0-3.41.97-6.18 2.9-8.34 1.92-2.17 4.68-3.87 8.19-5.13 3.52-1.25 7.88-2.12 13.06-2.65 5.09-.5 10.32-.88 15.76-1.14.13 0 .39-.05.39-.14v-.13c0-2.64-1.33-4.45-4.02-5.45-2.66-1.01-6.57-1.52-11.77-1.52-3.12 0-6.45.45-9.98 1.33-3.54.87-6.09 1.54-7.64 2.01-.99.37-1.62-.11-1.72-1.27v-8.76c-.01-.76.36-1.15.92-1.31 0 0 1.18-.21 1.86-.32 1.84-.29 4.16-.62 6.97-.97 4.5-.55 9.03-.85 13.55-.85 10.78 0 18.54 1.3 23.32 3.93 4.8 2.64 7.17 6.74 7.17 12.34v30.07c.03 1.23-.53 1.76-1.7 1.72h-15.34c-1.1 0-1.77-.49-1.74-1.75v-2.9zm72.76-8.65v-22.28c-.03-.22-.3-.37-.45-.42-1.21-.37-2.44-.64-3.77-.82-1.44-.21-2.83-.31-4.04-.31-4.97 0-8.7 1.26-11.18 3.71-2.49 2.46-3.73 5.89-3.73 10.26 0 4.62.99 7.94 3 10.01 2 2.1 5.17 3.14 9.6 3.14 1.7 0 3.52-.26 5.46-.78 1.62-.44 3.07-1.03 4.4-1.65.42-.19.65-.55.71-.88zm19.07 11.58c-.03.9-.73 1.73-2.02 1.72h-15.09c-1.07.03-2.05-.37-1.95-1.68v-2.17c-.18-.62-.66-.61-.99-.41-2.9 1.8-5.62 3.16-8.19 4.06-2.84 1.03-6.13 1.52-9.84 1.52-7.21 0-12.97-2.19-17.28-6.57-4.33-4.4-6.49-10.31-6.49-17.76 0-3.98.71-7.51 2.18-10.56a23.53 23.53 0 0 1 5.99-7.9c2.39-2.09 5.28-3.71 8.68-4.86 3.41-1.15 6.79-1.74 10.21-1.74s6.45.3 8.71.88c2.27.61 3.82 1.06 6.21 1.98.46.2.8-.02.79-.52v-18c.04-.5.39-.85 1.01-.88h17.06c.58 0 .99.25 1 .86v62.02zm52.75-10.2c1.22-1.22 2.14-2.64 2.77-4.3.63-1.68.92-3.99.92-6.96 0-2.74-.31-5.05-.94-6.89-.63-1.86-1.53-3.33-2.66-4.45-1.12-1.13-2.49-1.93-4.07-2.39-1.6-.49-3.3-.73-5.14-.73s-3.45.19-4.89.6c-1.43.36-2.79 1.14-4.12 2.3-1.16 1.09-2.08 2.58-2.76 4.45-.7 1.87-1.02 4.25-1.02 7.1 0 2.56.27 4.76.89 6.61.6 1.89 1.46 3.39 2.65 4.54 1.11 1.07 2.45 1.85 4.03 2.36 1.59.49 3.37.75 5.38.75 1.72 0 3.37-.23 4.95-.71 1.55-.46 2.89-1.22 3.99-2.29zm23.32-11.35c0 7.67-2.84 13.71-8.51 18.11-5.67 4.43-13.65 6.62-23.92 6.62s-18.23-2.19-23.92-6.62c-5.67-4.4-8.51-10.43-8.51-18.11s2.86-13.77 8.58-18.16c5.7-4.43 13.65-6.63 23.85-6.63s18.34 2.2 23.97 6.63c5.65 4.43 8.46 10.5 8.46 18.15z"/></g></svg>